<svg xmlns="http://www.w3.org/2000/svg" xmlns:xlink="http://www.w3.org/1999/xlink" version="1.1" x="0px" y="0px" viewBox="0 0 100 125" enable-background="new 0 0 100 100" xml:space="preserve"><path d="M42.6884766,46.2744141h0.0004883c-1.5126953-2.7055664-4.1416016-4.5297852-7.2143555-5.0043945  c-0.6987305-0.1079102-1.3901367-0.440918-2.0551758-0.9902344c-1.8232422-1.5053711-4.2871094-2.0942383-6.5908203-1.5742188  c-2.4882813,0.5610352-4.5249023,2.296875-5.7353516,4.887207c-0.1162109,0.2485352-0.1967773,0.5234375-0.2324219,0.7954102  c-0.1479492,1.112793-0.1225586,2.1850586,0.074707,3.1860352c0.0737305,0.3745117-0.0844727,0.831543-0.4770508,0.9487305  c-3.6889648,1.1020508-6.0004883,4.6396484-5.4970703,8.4106445c0.1132813,0.8486328,0.0063477,1.7202148-0.3100586,2.5205078  c-1.1108398,2.8095703-0.9042969,5.9306641,0.5668945,8.5620117c2.0688477,3.7021484,6.1694336,5.6542969,10.2773438,5.0048828  c1.7954102,2.7304688,4.8144531,4.3632813,8.0991211,4.3632813c0.1416016,0,0.2836914-0.0039063,0.4262695-0.0097656  c3.8769531-0.1660156,7.2612305-2.6347656,9.0541992-6.6074219c0.1108398-0.2470703,0.1865234-0.5175781,0.2197266-0.7822266  c0.2993164-2.3774414-0.0356445-4.6376953-0.9682617-6.5498047c0.3466797-1.9619141,0.0791016-3.9833984-0.7587891-5.7836914  C44.269043,54.4951172,44.7583008,49.9765625,42.6884766,46.2744141z M38.7041016,56.3076172  c-0.5283203,0.487793-0.6362305,1.2822266-0.2568359,1.8930664l0.0957031,0.1499023  c0.0283203,0.043457,0.0576172,0.0869141,0.081543,0.1293945c0.7734375,1.3833008,1.0302734,3.0029297,0.7236328,4.5620117  c-0.1064453,0.5449219-0.0297852,1.0942383,0.2226563,1.5893555c0.7319336,1.4301758,0.9833984,3.1054688,0.7680664,4.90625  c-1.3349609,2.9570313-3.6845703,4.7216797-6.4462891,4.8398438c-2.5458984,0.1015625-4.9042969-1.2050781-6.1474609-3.4277344  c-0.0258789-0.046875-0.0473633-0.09375-0.0693359-0.140625l-0.0761719-0.1582031  c-0.2592773-0.5175781-0.7851563-0.8291016-1.3417969-0.8291016c-0.1342773,0-0.2709961,0.0175781-0.4057617,0.0556641  c-3.1337891,0.8808594-6.4291992-0.4863281-8.015625-3.3251953c-1.0292969-1.8417969-1.1733398-4.0268555-0.3950195-5.9956055  c0.5039063-1.2753906,0.6748047-2.6655273,0.4936523-4.0205078c-0.2636719-1.9726563,0.8139648-4.3710938,3.3818359-5.1386719  c1.8461914-0.5512695,2.9477539-2.4438477,2.5620117-4.402832c-0.1337891-0.6796875-0.1489258-1.4238281-0.0678711-2.1318359  c0.8085938-1.730957,2.1147461-2.8779297,3.6772461-3.2304688c1.4038086-0.3164063,2.9077148,0.0419922,4.0209961,0.9609375  c1.0874023,0.8979492,2.2680664,1.4506836,3.5078125,1.6416016c2.152832,0.3325195,3.9946289,1.609375,5.0527344,3.503418  c0,0,0,0,0.0004883,0C41.6567383,50.5766602,41.0952148,54.1005859,38.7041016,56.3076172z M90.4723511,73.6642456  l4.3601685-2.5348511c0.5195313-0.3007813,0.8613281-0.8222656,0.9404297-1.4287109  c0.0927734-0.7119141-0.1914063-1.4755859-0.7587891-2.0410156l-2.1513672-2.1518555  c-0.6044922-0.6049805-1.4189453-0.8833008-2.1601563-0.737793l-6.5722046,1.2560425l-6.5722656-7.859314l14.9696655-9.4396973  c0.5498047-0.347168,0.90625-0.9204102,0.9804688-1.5732422c0.0771484-0.690918-0.1669922-1.3769531-0.671875-1.8833008  l-2.2978516-2.2963867c-0.5810547-0.5825195-1.421875-0.8193359-2.1982422-0.6142578l-15.8338013,4.1952515  C72.4268799,26.8892212,56.4064331,10.9135742,36.722168,10.9135742c-9.09021,0-17.3946533,3.4126587-23.7138672,9.0165405  c-0.1959229,0.1096802-0.3676758,0.2590942-0.4980469,0.4456177C5.399353,26.9207764,0.934082,36.2983398,0.934082,46.7016602  c0,19.7333984,16.0546875,35.7880859,35.7880859,35.7880859c5.5679321,0,10.8424683-1.2792358,15.5466309-3.5575562  c0.0025635,0.5959473,0.2423706,1.185791,0.6838379,1.6268921l2.2978516,2.2978516  c0.4433594,0.4433594,1.0263672,0.6865234,1.6298828,0.6865234c0.0839844,0,0.1679688-0.0048828,0.2509766-0.0146484  c0.6542969-0.0722656,1.2275391-0.4306641,1.5751953-0.9814453l9.4385986-14.9666748l7.8596802,6.5720825l-1.2562866,6.5723267  c-0.1425781,0.7490234,0.1347656,1.5576172,0.7392578,2.1591797l2.1513672,2.1523438  c0.4970703,0.4960938,1.1425781,0.7744141,1.7734375,0.7744141c0.0908203,0,0.1816406-0.0058594,0.2714844-0.0175781  c0.6054688-0.0800781,1.125-0.4228516,1.4238281-0.9384766l2.5324707-4.3568115  c0.7001343,0.4918213,1.5181274,0.7474365,2.3679199,0.7474365c1.2695313,0,2.59375-0.5380859,3.6357422-1.5800781  C91.3831787,77.9263916,91.7000732,75.4110107,90.4723511,73.6642456z M88.6918945,45.3701172l1.3671875,1.3666992  l-14.442688,9.1078491l-4.7987671-5.7384033L88.6918945,45.3701172z M58.6938477,22.387085  c6.6381226,6.0042114,10.8164063,14.6800537,10.8164063,24.3145752c0,0.2185669-0.0122681,0.4342041-0.0165405,0.6517334  l-0.8006592,0.2121582l-5.7072144-6.8248291c-1.9414063-2.0732422-5.8466797-3.6762695-9.0839844-3.7294922  c-0.3156738-0.0070801-0.619751,0.0046387-0.9174194,0.0262451c-0.4129639-1.0750122-0.6436157-2.236145-0.6436157-3.446167  c0-2.8847656,1.2856445-5.5893555,3.5268555-7.4199219C57.0161133,25.2338867,57.9381104,23.979248,58.6938477,22.387085z   M15.1339722,22.0546875c5.7723389-5.0622559,13.3252563-8.1411133,21.5881958-8.1411133  c1.1912231,0,2.3666382,0.0678101,3.5253296,0.1922607c0.0192261,0.0093384,0.0354614,0.0222778,0.0552368,0.0308838  c1.3476563,0.5839844,2.3935547,1.8071289,2.796875,3.2714844c0.4453125,1.6152344,0.0825195,3.3691406-1.0214844,4.9487305  l-0.1064453,0.1079102C39.375,24.355957,37.2353516,23.7749023,36.184082,23.2539063  c-0.6582031-0.3242188-1.5512695-0.3535156-2.2231445-0.0708008c-0.9091797,0.3852539-1.8662109,0.5805664-2.8525391,0.5805664  c-1.0991211,0-2.0698242,0.6567383-2.4716797,1.6728516c-0.7470703,1.8857422-2.2685547,3.3564453-4.1743164,4.0356445  c-2.0141602,0.7158203-4.2817383,0.4643555-6.3857422-0.7094727c-0.7724609-0.4311523-1.4042969-1.0498047-1.8276367-1.7890625  C15.3286743,25.3659668,14.9511108,23.6774292,15.1339722,22.0546875z M53.2258301,75.0155029  c-4.8513184,2.8387451-10.4885864,4.4742432-16.5036621,4.4742432c-18.0795898,0-32.7880859-14.7084961-32.7880859-32.7880859  c0-8.3786011,3.1628418-16.0296631,8.3521729-21.8318481c0.2399292,1.2192383,0.6914063,2.4281616,1.3592529,3.5945435  c0.6943359,1.2119141,1.7207031,2.2211914,2.9682617,2.9174805c1.7749023,0.9912109,3.6547852,1.4936523,5.5029297,1.4936523  c1.140625,0,2.2685547-0.1914063,3.3525391-0.5771484c2.6455078-0.9423828,4.7714844-2.953125,5.8662109-5.5371094  c1.2539063-0.0263672,2.4804688-0.2797852,3.6489258-0.7548828c2.8271484,1.3378906,6.0527344,0.9033203,8.8720703-1.2036133  c0.0610352-0.0454102,0.1484375-0.1264648,0.2016602-0.1801758l0.2460938-0.2504883  c0.0527344-0.0541992,0.1010742-0.1118164,0.1450195-0.1728516c1.6948242-2.3549805,2.2426758-5.0498047,1.5429688-7.5883789  c-0.1467285-0.5317993-0.3536987-1.0405273-0.6019287-1.5255737c3.9961548,1.0969849,7.692749,2.9251099,10.9268188,5.3433838  c-0.0457153,0.0949097-0.0998535,0.1912842-0.1408081,0.2857056c-0.5996094,1.3862305-1.3212891,2.4106445-2.2060547,3.1333008  c-2.9418945,2.402832-4.6293945,5.9541016-4.6293945,9.7436523c0,1.4866333,0.2653809,2.9171753,0.7426147,4.2518311  c-0.4837036,0.2626343-0.9234619,0.5784302-1.3031616,0.9581299c-1.206543,1.2060547-1.8251953,2.9770508-1.7900391,5.121582  c0.0532227,3.2373047,1.6567383,7.1425781,3.7929688,9.1401367l6.7607422,5.6531982L53.2258301,75.0155029z M56.7163086,80.0805664  l-1.3662109-1.3671875l4.7345581-17.8727417l5.7385254,4.7984619L56.7163086,80.0805664z M79.1313477,82.2856445  l-1.3652344-1.3662109l0.8722534-4.5645752l2.6517944,2.2173462L79.1313477,82.2856445z M87.5229492,77.5444336  c-0.6982422,0.6982422-1.6992188,0.9072266-2.2294922,0.4648438L52.7709961,50.8173828  c-1.3027344-1.2202148-2.7363281-4.2216797-2.78125-6.9438477c-0.0151367-0.9155273,0.1308594-2.1704102,0.9116211-2.9511719  c0.746582-0.746582,1.9272461-0.9125977,2.8295898-0.9125977c0.0410156,0,0.0820313,0.0004883,0.1220703,0.0009766  c2.7216797,0.0444336,5.7236328,1.4780273,6.8876953,2.7177734l27.2460938,32.5854492  C88.4301758,75.8442383,88.222168,76.8452148,87.5229492,77.5444336z M86.3323975,68.6592407l4.5665283-0.8726196  l1.3662109,1.3662109l-3.7145996,2.1588745L86.3323975,68.6592407z M94.659668,86.5258789  c0.5859375,0.5859375,0.5859375,1.5351563,0,2.1210938c-0.2929688,0.2929688-0.6767578,0.4394531-1.0605469,0.4394531  s-0.7675781-0.1464844-1.0605469-0.4394531l-3.3876953-3.3876953c-0.5859375-0.5859375-0.5859375-1.5351563,0-2.1210938  s1.5351563-0.5859375,2.1210938,0L94.659668,86.5258789z M98.6264648,84.6801758  c-0.2929688,0.2929688-0.6767578,0.4394531-1.0605469,0.4394531s-0.7675781-0.1464844-1.0605469-0.4394531l-3.3876953-3.3876953  c-0.5859375-0.5859375-0.5859375-1.5351563,0-2.1210938s1.5351563-0.5859375,2.1210938,0l3.3876953,3.3876953  C99.2124023,83.1450195,99.2124023,84.0942383,98.6264648,84.6801758z"/><text x="0" y="115" fill="#000000" font-size="5px" font-weight="bold" font-family="'Helvetica Neue', Helvetica, Arial-Unicode, Arial, Sans-serif">Created by Llisole</text><text x="0" y="120" fill="#000000" font-size="5px" font-weight="bold" font-family="'Helvetica Neue', Helvetica, Arial-Unicode, Arial, Sans-serif">from the Noun Project</text></svg>